<?xml version="1.0" encoding="UTF-8"?>
<svg style="content-visibility:visible;height:100%;transform:translate3d(0px, 0px, 0px);width:100%" viewBox="0 0 24 24" xmlns="http://www.w3.org/2000/svg">
<defs>
<clipPath id="f">
<rect width="24" height="24"/>
</clipPath>
<clipPath id="e">
<path d="m0 0h600v600h-600z"/>
</clipPath>
<clipPath id="d">
<path d="m0 0h1e3v1e3h-1e3z"/>
</clipPath>
<clipPath id="c">
<path d="m0 0h1e3v1e3h-1e3z"/>
</clipPath>
<clipPath id="b">
<path d="m0 0h1e3v1e3h-1e3z"/>
</clipPath>
<mask id="a">
<rect transform="translate(200 200)" width="600" height="600" fill="#fff"/>
<path d="m67.22 823.8s-193.52 193.95-193.52 193.95l103.98 103.31 193.52-193.95s68.474-66.76 15.678-116.99c-56.881-54.114-119.66 13.682-119.66 13.682"/>
<path d="m695 558h-56v74h56v-74" fill="#fff"/>
</mask>
</defs>
<g clip-path="url(#f)">
<g transform="scale(.04)" clip-path="url(#e)" display="block">
<g transform="translate(-200 -200)" clip-path="url(#b)" display="block">
<g mask="url(#a)">
<g transform="matrix(-25,0,0,25,800,173)" display="block">
<g transform="translate(12 8.5)">
<path d="m-4-1.38c0-2.209 1.791-4 4-4s4 1.791 4 4v3.89c0 2.209-1.791 3.99-4 3.99s-4-1.781-4-3.99v-3.89z" fill="#5865f2"/>
</g>
<g transform="translate(12 14)">
<path d="m-7-2.99c0 3.866 3.134 7 7 7s7-3.134 7-7" fill-opacity="0" stroke="#5865f2" stroke-linecap="round" stroke-width="2"/>
</g>
<g transform="translate(12 20)">
<path d="m-1-2c0-0.276 0.224-0.5 0.5-0.5h1c0.276 0 0.5 0.224 0.5 0.5v4c0 0.276-0.224 0.5-0.5 0.5h-1c-0.276 0-0.5-0.224-0.5-0.5v-4z" fill="#5865f2"/>
</g>
<g transform="translate(12 22)">
<path d="m3-1c0.552 0 1 0.448 1 1s-0.448 1-1 1h-6c-0.552 0-1-0.448-1-1s0.448-1 1-1h6z" fill="#5865f2"/>
</g>
</g>
<g display="none"/>
</g>
</g>
<g transform="translate(-200 -200)" clip-path="url(#c)" display="block">
<g display="none"/>
<g display="none"/>
</g>
<g clip-path="url(#d)" display="none">
<g display="none"/>
</g>
</g>
</g>
</svg>
