<?xml version="1.0" encoding="UTF-8"?>
<svg style="content-visibility:visible;height:100%;transform:translate3d(0px, 0px, 0px);width:100%" viewBox="0 0 24 24" xmlns="http://www.w3.org/2000/svg">
<defs>
<clipPath id="b">
<rect width="24" height="24"/>
</clipPath>
<clipPath id="a">
<path d="m0 0h600v600h-600z"/>
</clipPath>
</defs>
<g clip-path="url(#b)">
<g transform="scale(.04)" clip-path="url(#a)" display="block">
<g transform="matrix(25,0,0,25,300,300)" display="block">
<g>
<path d="m-1.442-10.906c-0.453 0.059-0.705 0.531-0.636 0.983 0.178 1.166-0.187 2.202-0.983 2.532-0.796 0.33-1.787-0.144-2.485-1.094-0.271-0.368-0.784-0.524-1.146-0.246-0.766 0.588-1.451 1.273-2.039 2.039-0.278 0.362-0.122 0.875 0.246 1.146 0.95 0.698 1.424 1.689 1.094 2.485-0.33 0.796-1.366 1.161-2.532 0.983-0.452-0.069-0.924 0.183-0.983 0.636-0.062 0.472-0.094 0.953-0.094 1.442s0.032 0.97 0.094 1.442c0.059 0.453 0.531 0.705 0.983 0.636 1.166-0.178 2.202 0.187 2.532 0.983 0.33 0.796-0.144 1.786-1.094 2.485-0.368 0.271-0.524 0.783-0.246 1.146 0.588 0.766 1.273 1.451 2.039 2.039 0.362 0.278 0.875 0.122 1.146-0.246 0.698-0.95 1.689-1.424 2.485-1.094 0.796 0.33 1.161 1.366 0.983 2.532-0.069 0.452 0.183 0.924 0.636 0.983 0.472 0.062 0.953 0.094 1.442 0.094s0.97-0.032 1.442-0.094c0.453-0.059 0.705-0.531 0.636-0.983-0.178-1.166 0.188-2.202 0.984-2.532 0.796-0.33 1.786 0.144 2.484 1.094 0.271 0.368 0.783 0.524 1.146 0.246 0.766-0.588 1.451-1.273 2.039-2.039 0.278-0.363 0.122-0.875-0.246-1.146-0.95-0.698-1.424-1.689-1.094-2.485 0.33-0.796 1.366-1.161 2.532-0.983 0.452 0.069 0.924-0.183 0.983-0.636 0.062-0.472 0.094-0.953 0.094-1.442s-0.032-0.97-0.094-1.442c-0.059-0.453-0.531-0.705-0.983-0.636-1.166 0.178-2.202-0.187-2.532-0.983-0.33-0.796 0.144-1.787 1.094-2.485 0.368-0.271 0.524-0.784 0.246-1.146-0.588-0.766-1.273-1.451-2.039-2.039-0.363-0.278-0.874-0.122-1.145 0.246-0.698 0.95-1.689 1.424-2.485 1.094-0.796-0.33-1.161-1.366-0.983-2.532 0.069-0.452-0.184-0.924-0.637-0.983-0.472-0.062-0.953-0.094-1.442-0.094s-0.97 0.032-1.442 0.094zm5.442 10.906c0 2.209-1.791 4-4 4s-4-1.791-4-4 1.791-4 4-4 4 1.791 4 4z" fill="#5865f2"/>
</g>
</g>
</g>
</g>
</svg>
